{
  "source": "C:\\Users\\Peter\\Desktop\\stuff\\MIUN\\quantitative_research\\video_compression\\videos\\BVI-HD\\DiverFishAndRock_1920x1080_30fps.mp4",
  "output": "C:\\Users\\Peter\\Desktop\\stuff\\MIUN\\quantitative_research\\video_compression\\compressed_videos\\BVI-HD\\av1\\12\\DiverFishAndRock_1920x1080_30fps_av1.mkv",
  "codec": "av1",
  "ok": "Input #0, mov,mp4,m4a,3gp,3g2,mj2, from 'C:\\Users\\Peter\\Desktop\\stuff\\MIUN\\quantitative_research\\video_compression\\videos\\BVI-HD\\DiverFishAndRock_1920x1080_30fps.mp4':\n  Metadata:\n    major_brand     : isom\n    minor_version   : 512\n    compatible_brands: isomiso2avc1mp41\n    encoder         : Lavf54.28.101\n  Duration: 00:00:05.00, start: 0.000000, bitrate: 228854 kb/s\n  Stream #0:0[0x1](und): Video: h264 (High 4:4:4 Predictive) (avc1 / 0x31637661), yuv420p(progressive), 1920x1080, 228851 kb/s, 30 fps, 30 tbr, 30 tbn (default)\n    Metadata:\n      handler_name    : VideoHandler\n      vendor_id       : [0][0][0][0]\n[out#0/matroska @ 000001f5911108c0] Codec AVOption b:a (set bitrate (in bits/s)) has not been used for any stream. The most likely reason is either wrong type (e.g. a video option with no video streams) or that it is a private option of some decoder which was not actually used for any stream.\nStream mapping:\n  Stream #0:0 -> #0:0 (h264 (native) -> av1 (libsvtav1))\nPress [q] to stop, [?] for help\nSvt[info]: -------------------------------------------\nSvt[info]: SVT [version]:\tSVT-AV1 Encoder Lib v3.1.0-19-g6ecfe8ec\nSvt[info]: SVT [build]  :\tGCC 15.2.0\t 64 bit\nSvt[info]: LIB Build date: Aug 17 2025 11:37:13\nSvt[info]: -------------------------------------------\nSvt[info]: Level of Parallelism: 5\nSvt[info]: Number of PPCS 93\nSvt[info]: [asm level on system : up to avx2]\nSvt[info]: [asm level selected : up to avx2]\nSvt[info]: -------------------------------------------\nSvt[info]: SVT [config]: main profile\ttier (auto)\tlevel (auto)\nSvt[info]: SVT [config]: width / height / fps numerator / fps denominator \t\t: 1920 / 1080 / 30 / 1\nSvt[info]: SVT [config]: bit-depth / color format \t\t\t\t\t: 8 / YUV420\nSvt[info]: SVT [config]: preset / tune / pred struct \t\t\t\t\t: 4 / PSNR / random access\nSvt[info]: SVT [config]: gop size / mini-gop size / key-frame type \t\t\t: 161 / 16 / key frame\nSvt[info]: SVT [config]: BRC mode / target bitrate (kbps)\t\t\t\t: VBR / 12000 \nSvt[info]: SVT [config]: AQ mode / Variance Boost \t\t\t\t\t: 2 / 0\nSvt[info]: SVT [config]: sharpness / luminance-based QP bias \t\t\t\t: 0 / 0\nSvt[info]: SVT [config]: QP scale compress strength \t\t\t\t\t: 0\nSvt[info]: -------------------------------------------\nOutput #0, matroska, to 'C:\\Users\\Peter\\Desktop\\stuff\\MIUN\\quantitative_research\\video_compression\\compressed_videos\\BVI-HD\\av1\\12\\DiverFishAndRock_1920x1080_30fps_av1.mkv':\n  Metadata:\n    major_brand     : isom\n    minor_version   : 512\n    compatible_brands: isomiso2avc1mp41\n    encoder         : Lavf62.3.100\n  Stream #0:0(und): Video: av1 (AV01 / 0x31305641), yuv420p(tv, progressive), 1920x1080, q=2-31, 12000 kb/s, 30 fps, 1k tbn (default)\n    Metadata:\n      encoder         : Lavc62.11.100 libsvtav1\n      handler_name    : VideoHandler\n      vendor_id       : [0][0][0][0]\n    Side data:\n      cpb: bitrate max/min/avg: 0/0/12000000 buffer size: 12000000 vbv_delay: N/A\nframe=    0 fps=0.0 q=0.0 size=       0KiB time=N/A bitrate=N/A speed=N/A elapsed=0:00:02.06    \nframe=    0 fps=0.0 q=0.0 size=       0KiB time=N/A bitrate=N/A speed=N/A elapsed=0:00:02.58    \nframe=    0 fps=0.0 q=0.0 size=       0KiB time=N/A bitrate=N/A speed=N/A elapsed=0:00:03.16    \nframe=    0 fps=0.0 q=0.0 size=       0KiB time=N/A bitrate=N/A speed=N/A elapsed=0:00:03.90    \nframe=    0 fps=0.0 q=0.0 size=       0KiB time=N/A bitrate=N/A speed=N/A elapsed=0:00:04.45    \nframe=    0 fps=0.0 q=0.0 size=       0KiB time=N/A bitrate=N/A speed=N/A elapsed=0:00:05.02    \nframe=    0 fps=0.0 q=0.0 size=       0KiB time=N/A bitrate=N/A speed=N/A elapsed=0:00:05.65    \nframe=    1 fps=0.2 q=5.0 size=       1KiB time=00:00:00.00 bitrate=N/A speed=   0x elapsed=0:00:06.22    \nframe=    1 fps=0.1 q=5.0 size=       1KiB time=00:00:00.00 bitrate=N/A speed=   0x elapsed=0:00:06.74    \nframe=    1 fps=0.1 q=5.0 size=       1KiB time=00:00:00.00 bitrate=N/A speed=   0x elapsed=0:00:07.25    \nframe=    1 fps=0.1 q=5.0 size=       1KiB time=00:00:00.00 bitrate=N/A speed=   0x elapsed=0:00:07.79    \nframe=    2 fps=0.2 q=16.0 size=       1KiB time=00:00:00.03 bitrate= 171.1kbits/s speed=0.00401x elapsed=0:00:08.31    \nframe=    4 fps=0.5 q=16.0 size=       1KiB time=00:00:00.10 bitrate=  57.0kbits/s speed=0.0113x elapsed=0:00:08.86    \nframe=    6 fps=0.6 q=14.0 size=       1KiB time=00:00:00.16 bitrate=  34.2kbits/s speed=0.0178x elapsed=0:00:09.38    \nframe=    7 fps=0.7 q=13.0 size=       1KiB time=00:00:00.20 bitrate=  28.5kbits/s speed=0.0202x elapsed=0:00:09.89    \nframe=   10 fps=1.0 q=11.0 size=       1KiB time=00:00:00.30 bitrate=  19.0kbits/s speed=0.0288x elapsed=0:00:10.41    \nframe=   11 fps=1.0 q=11.0 size=       1KiB time=00:00:00.33 bitrate=  17.1kbits/s speed=0.0305x elapsed=0:00:10.92    \nframe=   14 fps=1.2 q=11.0 size=       1KiB time=00:00:00.43 bitrate=  13.2kbits/s speed=0.0379x elapsed=0:00:11.44    \nframe=   17 fps=1.4 q=7.0 size=       1KiB time=00:00:00.53 bitrate=  10.7kbits/s speed=0.0445x elapsed=0:00:11.98    \nframe=   19 fps=1.5 q=11.0 size=       1KiB time=00:00:00.60 bitrate=   9.5kbits/s speed=0.048x elapsed=0:00:12.50    \nframe=   21 fps=1.6 q=10.0 size=       1KiB time=00:00:00.66 bitrate=   8.6kbits/s speed=0.0512x elapsed=0:00:13.01    \nframe=   23 fps=1.7 q=11.0 size=       1KiB time=00:00:00.73 bitrate=   7.8kbits/s speed=0.0542x elapsed=0:00:13.53    \nframe=   23 fps=1.6 q=11.0 size=       1KiB time=00:00:00.73 bitrate=   7.8kbits/s speed=0.0522x elapsed=0:00:14.05    \nframe=   26 fps=1.8 q=12.0 size=       1KiB time=00:00:00.83 bitrate=   6.8kbits/s speed=0.0572x elapsed=0:00:14.57    \nframe=   29 fps=1.9 q=10.0 size=       1KiB time=00:00:00.93 bitrate=   6.1kbits/s speed=0.0617x elapsed=0:00:15.12    \nframe=   31 fps=2.0 q=12.0 size=       1KiB time=00:00:01.00 bitrate=   5.7kbits/s speed=0.0639x elapsed=0:00:15.64    \nframe=   34 fps=2.1 q=13.0 size=       1KiB time=00:00:01.10 bitrate=   5.2kbits/s speed=0.068x elapsed=0:00:16.16    \nframe=   36 fps=2.2 q=13.0 size=       1KiB time=00:00:01.16 bitrate=   4.9kbits/s speed=0.0699x elapsed=0:00:16.68    \nframe=   38 fps=2.2 q=13.0 size=       1KiB time=00:00:01.23 bitrate=   4.6kbits/s speed=0.0716x elapsed=0:00:17.21    \nframe=   39 fps=2.2 q=12.0 size=       1KiB time=00:00:01.26 bitrate=   4.5kbits/s speed=0.0714x elapsed=0:00:17.73    \nframe=   42 fps=2.3 q=14.0 size=       1KiB time=00:00:01.36 bitrate=   4.2kbits/s speed=0.0748x elapsed=0:00:18.26    \nframe=   45 fps=2.4 q=10.0 size=       1KiB time=00:00:01.46 bitrate=   3.9kbits/s speed=0.0781x elapsed=0:00:18.78    \nframe=   48 fps=2.5 q=14.0 size=       1KiB time=00:00:01.56 bitrate=   3.6kbits/s speed=0.0812x elapsed=0:00:19.30    \nframe=   51 fps=2.6 q=13.0 size=       1KiB time=00:00:01.66 bitrate=   3.4kbits/s speed=0.0839x elapsed=0:00:19.85    \nframe=   55 fps=2.7 q=13.0 size=       1KiB time=00:00:01.80 bitrate=   3.2kbits/s speed=0.0883x elapsed=0:00:20.38    \nframe=   57 fps=2.7 q=10.0 size=       1KiB time=00:00:01.86 bitrate=   3.1kbits/s speed=0.0894x elapsed=0:00:20.88    \nframe=   59 fps=2.8 q=13.0 size=       1KiB time=00:00:01.93 bitrate=   3.0kbits/s speed=0.0903x elapsed=0:00:21.40    \nframe=   61 fps=2.8 q=11.0 size=       1KiB time=00:00:02.00 bitrate=   2.9kbits/s speed=0.0909x elapsed=0:00:21.99    \nframe=   63 fps=2.8 q=13.0 size=       1KiB time=00:00:02.06 bitrate=   2.8kbits/s speed=0.0917x elapsed=0:00:22.53    \nframe=   69 fps=3.0 q=13.0 size=       1KiB time=00:00:02.26 bitrate=   2.5kbits/s speed=0.0982x elapsed=0:00:23.07    \nframe=   73 fps=3.1 q=11.0 size=       1KiB time=00:00:02.40 bitrate=   2.4kbits/s speed=0.102x elapsed=0:00:23.61    \nframe=   73 fps=3.0 q=11.0 size=       1KiB time=00:00:02.40 bitrate=   2.4kbits/s speed=0.0995x elapsed=0:00:24.13    \nframe=   77 fps=3.1 q=11.0 size=       1KiB time=00:00:02.53 bitrate=   2.3kbits/s speed=0.103x elapsed=0:00:24.63    \nframe=   77 fps=3.1 q=11.0 size=       1KiB time=00:00:02.53 bitrate=   2.3kbits/s speed=0.101x elapsed=0:00:25.16    \nframe=   83 fps=3.2 q=14.0 size=       1KiB time=00:00:02.73 bitrate=   2.1kbits/s speed=0.106x elapsed=0:00:25.67    \nframe=   85 fps=3.2 q=13.0 size=       1KiB time=00:00:02.80 bitrate=   2.0kbits/s speed=0.107x elapsed=0:00:26.22    \nframe=   89 fps=3.3 q=11.0 size=       1KiB time=00:00:02.93 bitrate=   1.9kbits/s speed=0.11x elapsed=0:00:26.76    \nframe=   91 fps=3.3 q=13.0 size=       1KiB time=00:00:03.00 bitrate=   1.9kbits/s speed=0.11x elapsed=0:00:27.27    \nframe=   93 fps=3.3 q=11.0 size=       1KiB time=00:00:03.06 bitrate=   1.9kbits/s speed=0.11x elapsed=0:00:27.81    \nframe=   97 fps=3.4 q=7.0 size=       1KiB time=00:00:03.20 bitrate=   1.8kbits/s speed=0.113x elapsed=0:00:28.34    \nframe=  101 fps=3.5 q=13.0 size=    5120KiB time=00:00:03.33 bitrate=12582.9kbits/s speed=0.115x elapsed=0:00:28.88    \nframe=  103 fps=3.5 q=14.0 size=    5120KiB time=00:00:03.40 bitrate=12336.2kbits/s speed=0.116x elapsed=0:00:29.41    \nframe=  105 fps=3.5 q=11.0 size=    5120KiB time=00:00:03.46 bitrate=12099.0kbits/s speed=0.116x elapsed=0:00:29.93    \nframe=  107 fps=3.5 q=13.0 size=    5120KiB time=00:00:03.53 bitrate=11870.7kbits/s speed=0.116x elapsed=0:00:30.47    \nframe=  109 fps=3.5 q=11.0 size=    5120KiB time=00:00:03.60 bitrate=11650.8kbits/s speed=0.116x elapsed=0:00:30.98    \nframe=  113 fps=3.6 q=7.0 size=    5120KiB time=00:00:03.73 bitrate=11234.7kbits/s speed=0.118x elapsed=0:00:31.51    \nframe=  117 fps=3.7 q=13.0 size=    5120KiB time=00:00:03.86 bitrate=10847.3kbits/s speed=0.121x elapsed=0:00:32.03    \nframe=  119 fps=3.7 q=12.0 size=    5120KiB time=00:00:03.93 bitrate=10663.5kbits/s speed=0.121x elapsed=0:00:32.57    \nframe=  121 fps=3.7 q=11.0 size=    5120KiB time=00:00:04.00 bitrate=10485.8kbits/s speed=0.121x elapsed=0:00:33.10    \nframe=  123 fps=3.7 q=13.0 size=    5120KiB time=00:00:04.06 bitrate=10313.9kbits/s speed=0.121x elapsed=0:00:33.61    \nframe=  125 fps=3.7 q=12.0 size=    5120KiB time=00:00:04.13 bitrate=10147.5kbits/s speed=0.121x elapsed=0:00:34.14    \nframe=  129 fps=3.7 q=7.0 size=    5120KiB time=00:00:04.26 bitrate=9830.4kbits/s speed=0.123x elapsed=0:00:34.67    \nframe=  133 fps=3.8 q=15.0 size=    5120KiB time=00:00:04.40 bitrate=9532.5kbits/s speed=0.125x elapsed=0:00:35.20    \nframe=  135 fps=3.8 q=15.0 size=    5120KiB time=00:00:04.46 bitrate=9390.2kbits/s speed=0.125x elapsed=0:00:35.73    \nframe=  137 fps=3.8 q=12.0 size=    5120KiB time=00:00:04.53 bitrate=9252.1kbits/s speed=0.125x elapsed=0:00:36.25    \nframe=  141 fps=3.8 q=15.0 size=    5120KiB time=00:00:04.66 bitrate=8987.8kbits/s speed=0.127x elapsed=0:00:36.78    \nframe=  143 fps=3.8 q=15.0 size=    5120KiB time=00:00:04.73 bitrate=8861.2kbits/s speed=0.127x elapsed=0:00:37.29    \n[out#0/matroska @ 000001f5911108c0] video:7155KiB audio:0KiB subtitle:0KiB other streams:0KiB global headers:0KiB muxing overhead: 0.020843%\nframe=  150 fps=4.0 q=15.0 Lsize=    7156KiB time=00:00:04.96 bitrate=11803.3kbits/s speed=0.133x elapsed=0:00:37.30    \n",
  "seconds": 38.063841581344604,
  "probe_out": {}
}